<svg xmlns="http://www.w3.org/2000/svg" viewBox="0 0 1100 800"><defs><style>.cls-1{opacity:0.5;}.cls-2{fill:#eed5d5;}.cls-3{fill:#eac1a4;}.cls-4{fill:#8cabef;}.cls-5{fill:#292949;}.cls-6{opacity:0.26;}.cls-7{fill:none;}.cls-8{fill:#5d66d3;}.cls-9{fill:#dddae8;}.cls-10{fill:#d67086;}.cls-11{fill:#8c9295;}.cls-12,.cls-21{fill:#fff;}.cls-13{fill:#ebceb1;}.cls-14{fill:ivory;}.cls-15{fill:#474ebb;}.cls-16{opacity:0.2;}.cls-17{fill:#fffdf1;}.cls-18{fill:#000100;opacity:0.1;}.cls-19{fill:#353a85;}.cls-20{opacity:0.06;}.cls-21{opacity:0.34;}.cls-22{fill:#93aa9d;}.cls-23{fill:#504a45;}.cls-24{fill:#c2b39f;}.cls-25{fill:#fffff1;}.cls-26{fill:#ededed;}.cls-27{opacity:0.12;}.cls-28{fill:#cdced0;}</style></defs><g id="Shadow"><g class="cls-1"><path class="cls-2" d="M522,644.12c-28.19.08-56.38.76-84.52,3.89-10.62,1.18-21,3.78-31.64,4.82-21.24,2.09-42.11,6-63.43,7.8-17.16,1.45-34.4,2.3-51.52,4.14a181.41,181.41,0,0,1-49.74-1.52c-11.79-2.11-23.64-3.3-35.23-6.68-13-3.79-27-6.5-40.56-6.4-19.27.13-38,.15-56.47,6.84-6.47,2.35-14.39,6.21-19.31,11.14C78.29,679.43,76.77,707.58,88,719.28c18.92,19.69,59.31,27.42,85.83,27.79,29.06.39,57.29-1.76,86.4-3,27-1.18,54-2.86,81.11-2.8,55.33.12,110.67,0,165.89-3.69,51.89-3.48,103.91-2.28,155.91-2.28,53.33,0,106.29.41,159.24,7.5,23.06,3.09,46.56,4.17,69.75,6.33,20.76,1.94,40.71,0,61.39-1.82a146.59,146.59,0,0,0,50.39-13.51c12.49-6,34.75-24.5,38.58-38.75,10.74-39.93-151.3-39-176.18-38.88-27.83.1-55.88,1-83.69,0-11.7-.44-23.23-2.73-34.64-5.24s-22.83-1.86-34.37-2.91c-48.09-4.37-96.29-3.73-144.53-3.73C553.38,644.21,537.67,644.07,522,644.12Z"/></g></g><g id="Object"><polygon class="cls-3" points="220.02 327.61 208.82 318.6 212.54 313.73 221.61 318.24 222.28 315.14 230.91 324 227.74 329.57 220.02 327.61"/><polygon class="cls-4" points="338.29 321.06 288.08 346.83 229.01 320.04 223.29 331.41 285.88 378.2 354.55 360.22 338.29 321.06"/><path class="cls-5" d="M565.89,87c0-2.06,0-4.11-.07-6.16L568.65,75a2,2,0,0,1,2.92,0l2.5,5.72.07,6.15c2.29,0,6.05,1.68,6.07,3.84a4,4,0,0,1-4.1,4l-1.87,0,2.51,208.56c.14,11.76,6.64,21.48,15.8,21.16,7.1-.24,13.22-6.2,14.15-15.82a4.32,4.32,0,0,1,4.32-3.82h.17a4.23,4.23,0,0,1,4.41,4.56c-1.65,13.69-12.66,23.6-23.21,23.72-8.25.1-15.07-3.55-19.09-10.23-5-8.26-4.77-17.41-4.88-26.54l-.32-25.95q-.21-18.12-.43-36.23-.25-20.65-.5-41.3t-.5-41.19q-.21-17.93-.43-35.86-.12-10.48-.25-21H564.7a4,4,0,0,1-4.19-3.86C560.48,88.78,563.6,87,565.89,87Z"/><polygon class="cls-6" points="567.3 203.88 575.54 195.33 575.37 181.37 567.03 181.47 567.3 203.88"/><path class="cls-7" d="M518.13,203.19l-.83.41-1.21-.38,1.28,0Z"/><path class="cls-8" d="M625,200.91l-1.38-7.67a178.1,178.1,0,0,0-31.58-73.7L571.8,91.79c48.55,1.44,90.5,29,111.35,68.92a123.11,123.11,0,0,1,12.77,39.58,128.64,128.64,0,0,0-35.74-4.41A131.59,131.59,0,0,0,625,200.91Z"/><path class="cls-8" d="M520.59,186.67l-3.22,16.53-1.28,0A126.36,126.36,0,0,0,477.6,198a129,129,0,0,0-38.52,6.07A123.28,123.28,0,0,1,456,154.19,130,130,0,0,1,566.23,91.73c1.38,0,2.76,0,4.14,0l-15.65,22.89C535.48,138.28,526.81,162.1,520.59,186.67Z"/><path class="cls-9" d="M623.65,193.24l1.38,7.67-.35.1c-13.5-5.67-32-8.8-52.3-8.56-21.41.25-40.7,4.18-54.25,10.74h-.76l3.22-16.53c6.22-24.57,14.89-48.39,34.13-72l15.65-22.89,1.43,0,20.27,27.75A178.1,178.1,0,0,1,623.65,193.24Z"/><polygon class="cls-3" points="612.5 335.57 606.43 329.95 606.33 322.73 604.76 321.97 603.73 323.83 601.9 317.86 597.61 315.06 591.19 317.45 587.51 323.39 590.61 329.39 597.43 333.76 605.4 341.8 612.5 335.57"/><polygon class="cls-10" points="611.91 328.79 600.99 341.48 630.28 385.11 641.18 388.56 687.62 352.25 675.2 327.38 640.57 356.25 611.91 328.79"/><polygon class="cls-5" points="759.26 671.4 760.88 678.7 748.03 689.08 739.17 683.34 744.79 674.49 757.64 664.1 759.26 671.4"/><polygon class="cls-11" points="714.32 447.08 728.66 479.51 730.01 570.75 759.49 668.89 745.78 674.85 685.62 560.89 678.78 524.8 676.06 448.79 714.32 447.08"/><polygon class="cls-11" points="644.9 454.35 643.77 549.97 662.15 673.25 676.27 673.25 685.19 559.49 704.52 445.74 644.9 454.35"/><polygon class="cls-5" points="676.19 671.6 676.19 679.09 660.91 686.58 653.28 679.09 660.91 671.6 676.19 671.6"/><path class="cls-10" d="M672.72,324.87l37.52-1.36s22.45,19.32,34,69.52c11.82,51.11-2.18,124.7-2.18,124.7s-100.67-13.16-117.18-15.2l25.19-100.92Z"/><path class="cls-3" d="M686.17,328.63l13.14-1.26a62.36,62.36,0,0,0-.7-10.3c3.66-1.25,7.88-3.13,8.52-6.88a10.43,10.43,0,0,0-.21-3.56L704.37,292a13,13,0,0,0-1.54-4.86c-1.64-2.54-4.82-3.65-7.83-4.17-7.69-1.32-16.07.3-22,5.24a11.67,11.67,0,0,0-3.73,4.81c-1.09,3-.28,6.22.53,9.26.74,2.8,1.49,5.61,2.24,8.41.86,3.23,2.1,6.9,5.27,8.12,1.68.64,3.66.45,5.19,1.41C685.14,321.91,684.77,325.82,686.17,328.63Z"/><path class="cls-5" d="M643.36,279.93a40.4,40.4,0,0,1,1.07-9.76c1.17-5.24,7.47-7.59,12.92-8,11.77-.8,23.13-6,34.62-2,6.57,2.31,15.4,2.87,21.34,6.12a17.38,17.38,0,0,1,6,5.83,25.51,25.51,0,0,1,0,27.43,37.14,37.14,0,0,1-4.12,5.09c-3.11,3.29-6.82,7.36-11.09,8.58-.1-3.75,3.4-15.55.47-18.62-4.65-4.87-15.16-3.19-20.94-2-6.29,1.3-11.91,5.67-18.15,6.59-4.49.67-10.22-1.5-14-3.78C645.51,291.88,643.51,286,643.36,279.93Z"/><path class="cls-12" d="M683.07,329.42,643.62,484.18l-3.23,20.3,49.15,6.34s-1.94-74.11-1.3-84,7.94-31.25,9.06-54.28c.64-13.32,5-37.24,1.94-45Z"/><polygon class="cls-13" points="428.79 378.62 439.34 371.56 436.45 367 428.14 370.27 427.79 367.5 419.52 374.63 421.86 379.76 428.79 378.62"/><path class="cls-4" d="M421.5,371.29l4.12,10.42c.56,1.7-39.4,23.83-42.95,25.42-7.84,3.49-22,11.74-22,11.74-10.9.14-31.42-5.34-38.27-8.23-2.76-1.16-4.72-7.16-6.4-9.54-2.12-3,.58-8.36,2.4-10.82a25.86,25.86,0,0,1,15.71-9.87,15,15,0,0,1,6.8,0c2.27.62,5.18-9.64,7.11-8.3,3.42,2.36,5.31,18,9.39,19.34C362.49,393.19,420.29,368.84,421.5,371.29Z"/><path class="cls-4" d="M339.31,323.55l-.71,0c-11.21.54-24.78,15-32.64,23.49-20.3,22-34.48,47.19-45.09,75.36-5.71,15.17-10.76,30.59-15.49,46.09-1.3,4.29-10.48,43.46-12.7,43.74,22.82-2.86,45.79-5.1,68.51-3.55s45.33,7,64.81,18.77c10-50.27,17.35-102.33,19.77-153.28.29-6.09,1.24-12.37.65-18.43-.67-7-4.18-10.12-8.15-15.41a35.14,35.14,0,0,0-4.41-5.14C365.08,327.3,351.05,323.17,339.31,323.55Z"/><polygon class="cls-13" points="259.7 494.33 283.45 588.85 283.98 658.52 295.51 660.97 300.01 596.17 311.33 477.51 259.7 494.33"/><polygon class="cls-5" points="295.65 662.92 297.52 669.99 295.88 683.85 286.54 683.87 283.04 663.83 284.13 660.48 295.65 662.92"/><polygon class="cls-13" points="350.36 483.89 352.46 565.57 341.34 680.92 329.96 681.74 325.87 575.99 302.69 480.11 350.36 483.89"/><polygon class="cls-5" points="340.99 678.99 356.32 686.98 355.1 694 328.02 690.75 329.32 680.64 340.99 678.99"/><polygon class="cls-5" points="353.7 494.43 361.41 588.79 353.56 653.51 322.74 651.79 317.24 578.22 303.91 498 305.98 485.51 350.41 486.15 353.7 494.43"/><polygon class="cls-5" points="306.96 581.93 303.34 649.61 276.54 648.26 277.08 584.07 260.19 503.46 264.04 480.93 309.11 483.68 306.96 581.93"/><path class="cls-14" d="M359.29,502.21c-27.49-4.65-72.05-15.92-99.54-20.57,14.39-46.86,37.29-98.91,64-140.07,4.84-7.46,10.89-15.25,19.56-17,9.29-1.9,25.57,4.1,27.37,14.29,2.64,14.9-2.84,35.46-4.53,50.53C362.32,423.46,365.94,468.53,359.29,502.21Z"/><path class="cls-3" d="M354.52,291.67c10.34-17.65,33.25-6.19,34.73,11.46,1,11.63-10.55,24.43-22.46,25.34-.24,2.79-.6,5.58-1.09,8.34l-9-2.41c-.94-.25-2-.62-2.31-1.52a2.89,2.89,0,0,1,.14-1.69c.55-1.86,1.09-3.72,1.64-5.58l-.61-.43c-5-3.71-7.21-10.18-6.92-16.29S351.41,297,354.52,291.67Z"/><path class="cls-5" d="M355.18,297.64c-5,4.7-5.46,12.22-5.79,18.69-.29,5.73-1.16,9.15-7.36,7.53-3.5-.91-9.73-2.46-11.21-6.21-1.12-2.85,3-7.72,5.16-9.38,1.66-1.26,4.15-1.06,5.78-2.36a6.58,6.58,0,0,0,1.54-2,33.87,33.87,0,0,0,3.61-9.76,34.05,34.05,0,0,1,1.64-6.87c1.35-3.15,5.41-5.54,8-7.73,4.89-4.05,16-7.14,20,.1a9.89,9.89,0,0,1,.77,5.5,8.29,8.29,0,0,1-.72,3.27c-2.07,4-6.12,2.75-9.67,3.32A23,23,0,0,0,355.18,297.64Z"/><path class="cls-5" d="M384,313.69c-1.28,2.92-4.45,5.26-4.14,8.42a13.68,13.68,0,0,0,1.54,3.95A11.05,11.05,0,0,1,380,337l17.51,8.21a5.8,5.8,0,0,0,2.78.78c2.08-.12,3.33-2.25,4.2-4.11,1.71-3.66,3.46-7.63,2.7-11.58-.36-1.84-1.24-3.54-1.58-5.38-1.67-8.83,9.12-17.25,5.81-25.62-1.47-3.74-5.33-5.95-7.94-9-4.56-5.37-5.21-13.27-10.11-18.34-9.25-9.58-27.41-1.74-26,11.56C368.49,294.38,389.09,301.93,384,313.69Z"/><path class="cls-4" d="M337.82,326.32S290.27,438.8,300.77,467.49s15.39,39.8,15.39,39.8l-72.82,3S289.82,346,337.82,326.32Z"/><path class="cls-15" d="M780.13,524l-32.26-33.62-1-.05-5.17-12.07-27.27-63.73c-8-18.68-14.36-50.25-39.39-51.66L437.17,349.53c-26.42-1.48-51.39,12.89-64.16,36.93l-44.45,83.69-4-.19-81.12,20.18a80.28,80.28,0,0,0-49.88,69.35l-2.68,45.94,603.93,33.83,3.8-65.35A66.5,66.5,0,0,0,780.13,524Z"/><path class="cls-4" d="M550.1,472.65l158.69,8.89-31-89.19a11.4,11.4,0,0,0-10.08-7.74l-112.16-6.29Z"/><path class="cls-4" d="M528.44,376.8l-90.9-5.09c-19.26-1.08-37.47,9.4-46.78,26.93l-33.57,63.21L523,471.13Z"/><g class="cls-16"><path class="cls-17" d="M681,413.69l6.13,3.68L678.62,393a11.38,11.38,0,0,0-10.07-7.74l-38.86-2.18C646.71,393.37,663.88,403.45,681,413.69Z"/><path class="cls-17" d="M682.82,434.66c-28.22-17.11-57.84-36.39-85.74-54l-36.48-1.47c23.76,22.44,54.24,42.91,81.15,61.31,16.17,11.07,32.73,21.59,49.76,31.36,5.58,3.2,11.44,6.14,17.32,9.12l-13.41-38.61Q689.14,438.49,682.82,434.66Z"/><path class="cls-17" d="M496.55,431.65c-11.8-8.47-24.07-16.35-36.44-24-12.53-7.72-25.23-15.49-38.45-22-4.36-2.16-8.78-4.19-13.18-6.24a51.41,51.41,0,0,0-17.72,19.24l-.33.61c13.17,10.18,26.44,20.25,39.51,30.5,19.33,15.17,40.95,27,62,39.65l31,1.73L524,454C514.82,446.56,506.16,438.54,496.55,431.65Z"/></g><path class="cls-18" d="M419.55,618.24a41.37,41.37,0,0,0,1.28-8.14c1.6-27.45-23.83-51.2-56.8-53.05A68.07,68.07,0,0,0,329,564.29c20.08,5.34,37.41,16.32,51.27,30.22a89.9,89.9,0,0,1,16.47,22.31Z"/><path class="cls-18" d="M732.27,635.76a42.89,42.89,0,0,0,1.26-8.14c1.6-27.45-23.2-51.17-55.38-53a65.24,65.24,0,0,0-34.25,7.29c19.6,5.31,36.51,16.27,50,30.14A89.35,89.35,0,0,1,710,634.37Z"/><ellipse class="cls-5" cx="348.65" cy="608.5" rx="53.18" ry="52.23" transform="translate(-2.01 1.16) rotate(-0.19)"/><ellipse class="cls-17" cx="348.65" cy="608.5" rx="30.18" ry="29.64" transform="translate(-1.99 1.15) rotate(-0.19)"/><path class="cls-18" d="M352.74,629.41c5.78-.1,11.7-1.77,16-5.56A17.36,17.36,0,0,1,356.47,634a28.78,28.78,0,0,1-5.64.49,29.17,29.17,0,0,1-6-.42,17.74,17.74,0,0,1-12.3-9.43c.76,1.55,6.61,2.94,8.06,3.28A48.68,48.68,0,0,0,352.74,629.41Z"/><ellipse class="cls-5" cx="662.38" cy="626.08" rx="53.18" ry="52.23" transform="translate(-2.07 2.2) rotate(-0.19)"/><ellipse class="cls-17" cx="662.38" cy="626.08" rx="30.18" ry="29.64" transform="translate(-2.02 2.15) rotate(-0.19)"/><path class="cls-18" d="M666.47,647c5.78-.11,11.7-1.78,16-5.57a17.33,17.33,0,0,1-12.28,10.14,28.62,28.62,0,0,1-5.63.5,29.12,29.12,0,0,1-6-.43,17.73,17.73,0,0,1-12.31-9.43c.77,1.55,6.61,2.94,8.07,3.28A48.63,48.63,0,0,0,666.47,647Z"/><path class="cls-19" d="M500.91,508.87,484.46,508a6.13,6.13,0,0,1-5.85-6.44h0a6.17,6.17,0,0,1,6.56-5.74l16.45.92a6.15,6.15,0,0,1,5.85,6.44h0A6.17,6.17,0,0,1,500.91,508.87Z"/><polygon class="cls-3" points="680.26 425.44 673.44 431.52 665.32 431.02 664.34 432.65 666.34 433.92 659.48 435.4 655.98 439.8 658.12 446.93 664.49 451.41 671.49 448.57 676.96 441.56 686.67 433.63 680.26 425.44"/><path class="cls-10" d="M673.73,429.05l33.18-25.38c3-2.27,6.36-4,9.33-6.3,4.34-3.37,5.48-4.38,4-9.25C716,374,707.05,361.4,703,347.44c4.67-2.69,8.86-6,13.89-8.16,8.22-3.59,10.1,2.24,13.44,8.17q6,10.55,11.21,21.47c2.88,6,17.24,31.34,9.09,37.35-5.84,4.33-69.66,37.33-69,38.63Z"/><path class="cls-8" d="M285.79,215.12c-62.91,30.81-104.61,8.93-110.34,5.59,0,0-.21-.43-.34-.21-.22-.13-.2.34-.2.34-3.39,5.62-29.3,44.43-99.57,47,0,0,20.35,120.07,71.65,158.29,54.78,40.82,93.8,47.55,93.94,47.37.21.09,31.56-23.93,59.32-85.73C326.22,329.91,285.79,215.12,285.79,215.12Z"/><path class="cls-4" d="M279.19,229.65c-57.15,27.71-94.86,8.37-100,5.42,0,0-.19-.38-.31-.18-.2-.12-.18.3-.18.3-3.1,5-26.74,39.72-90.45,42.26,0,0,18,106.94,64.28,140.8C202,454.42,238,463.06,238.15,462.9c.19.08,28-24.27,53.42-79.46C315.36,331.8,279.19,229.65,279.19,229.65Z"/><g class="cls-20"><path d="M181.33,245.51s0-.44.19-.31c.13-.21.32.18.32.18,5.32,3,43.39,22.56,101.31-4-3.07-10.58-5.38-17.11-5.38-17.11-57.16,27.71-94.86,8.37-100,5.42,0,0-.18-.38-.3-.18-.21-.12-.19.3-.19.3-3.09,5-26.74,39.72-90.45,42.26,0,0,1.15,6.82,3.6,17.56C154.26,285.72,178.15,250.67,181.33,245.51Z"/></g><path class="cls-21" d="M268.84,263.2c-43.13,21.12-77.44,6.41-81.36,4.12,0,0-.14-.29-.23-.14-.16-.09-.14.23-.14.23-2.33,3.86-25,32.76-73.15,34.5,0,0,18.84,80,54,106.22,37.56,28,64.32,32.6,64.41,32.47.15.07,21.64-16.4,40.67-58.77C290.85,342.19,268.84,263.2,268.84,263.2Z"/><polygon class="cls-3" points="861.42 349.57 855.31 346.33 853.66 340.55 852.23 340.27 851.81 341.98 849.04 337.57 844.98 336.22 840.35 339.49 838.69 345.04 842.48 349.21 848.92 351.28 857.08 356.07 861.42 349.57"/><polygon class="cls-22" points="857.96 342.9 893.9 367.54 930.67 328.82 935.06 372.74 899.22 395.86 851.4 354.51 857.96 342.9"/><polygon class="cls-23" points="987.53 664.41 988.14 670.34 977.16 677.73 970.75 672.53 975.93 665.87 986.92 658.48 987.53 664.41"/><polygon class="cls-24" points="987.25 483.15 989.12 501.15 972.65 563.01 987.94 662.42 976.68 666.23 947 569.17 942.29 540.94 942.46 481.17 987.25 483.15"/><polygon class="cls-24" points="900.68 503.21 924.36 669.79 935.12 669.79 937.06 563.01 956.64 488.07 900.68 503.21"/><polygon class="cls-23" points="935.06 668.47 935.06 674.45 923.42 680.44 917.6 674.45 923.42 668.47 935.06 668.47"/><path class="cls-8" d="M927.12,332.22a9.6,9.6,0,0,1,3.55-3.4c10.7-5.91,28.42-.7,40-.7,3.43,35.4,12.91,69.15,19,103.91q9.75,55.38,22,110.31c.46,2.08-32.29,1-35.38,1.08-31.51.52-72.75.42-103.15-8.93,19.4-51.08,26.48-106,41.76-158.47,2.68-9.2,5.87-18.26,8.29-27.54C924.6,343.1,924.38,336.61,927.12,332.22Z"/><path class="cls-5" d="M941.42,280a20.94,20.94,0,0,0-15.13,17.45,18.44,18.44,0,0,1-5.78-15.89,18.64,18.64,0,0,1,9.89-13.79,21.28,21.28,0,0,1,10.42,12.37Z"/><path class="cls-3" d="M925.19,290.45c4.12-21.33,31.31-17.65,39.1-.37,4.44,9.83-.21,23.74-9.08,30.58-.19,1.89-.44,7.1-1.91,8.36s-6.62.07-8.59-.38a3.05,3.05,0,0,1-1.51-.67c-.49-.48-.58-1.79-.59-3.23a18.93,18.93,0,0,1-4.43-.86c-6.32-2-10.9-7.78-12.79-14S924,296.87,925.19,290.45Z"/><path class="cls-5" d="M965.38,375.16l-.62-.06c-4.79-.81-12.49-2.33-14.71-7.28s1.77-14.29,2.44-19.57c1-8,1.35-16.1,1.75-24.17.35-7.27-2.3-14.44-6.18-20.65s-8.95-11.59-13.95-17c-2.08-2.24-4.23-4.63-4.86-7.6-.7-3.27.63-6.73,2.84-9.29a16.15,16.15,0,0,1,12.54-6c18-.42,31.49,10,36.59,27.23,7.31,24.68-1.82,48.23-.46,72.78a23.14,23.14,0,0,0,4,11.8C984.16,374.42,969.26,375.38,965.38,375.16Z"/><polygon class="cls-3" points="953.41 408.13 946.18 410.45 940.24 407.38 938.94 408.28 940.01 409.9 934.34 408.74 930.18 410.89 929.34 416.97 932.59 422.44 938.84 422.63 945.37 419.17 955.41 416.41 953.41 408.13"/><path class="cls-8" d="M972.5,400.47a11.3,11.3,0,0,0,5.41-9.12c.25-3.9-.68-7.76-1.36-11.61a93.64,93.64,0,0,1,.84-36.95c2.72-12,17,3.1,18.82,8.54,2,6,1.42,12.58,1.9,18.8q1,12.56.92,25.14c0,5.3,1.31,17.83-4.38,20.87a15.78,15.78,0,0,1-5,1.38c-2.72.44-35.17,4.45-35.68,2.88l-4.48-13.87C956.2,405.17,966.31,404.57,972.5,400.47Z"/><polygon class="cls-19" points="906.02 543.31 735.75 517.61 770.73 294.75 941 320.45 906.02 543.31"/><polygon class="cls-6" points="749.96 509.95 752.51 510.34 902.15 537.61 931.29 326.26 924 327.17 749.96 509.95"/><polygon class="cls-25" points="898.94 532.44 745.84 509.33 778.2 303.14 931.29 326.26 898.94 532.44"/><path class="cls-26" d="M877.44,298.06l-1-.16.11-.68c1-6.43-4.28-12.56-11.81-13.7L854.8,282c-7.53-1.14-14.45,3.15-15.45,9.58l-.11.68-1-.16c-7.53-1.13-14.45,3.16-15.46,9.58l-2,13,66.49,10,2-13C890.25,305.32,885,299.19,877.44,298.06Zm-10.9-1.38L849,294a3.25,3.25,0,0,1-2.75-3.69,3.3,3.3,0,0,1,3.76-2.7l17.51,2.65A3.26,3.26,0,0,1,870.3,294,3.3,3.3,0,0,1,866.54,296.68Z"/><polygon class="cls-27" points="887.2 324.75 820.71 314.71 821.67 308.59 888.16 318.63 887.2 324.75"/><polygon class="cls-28" points="900.9 401.91 785.85 384.55 786.33 381.51 901.38 398.88 900.9 401.91"/><polygon class="cls-28" points="897.39 424.29 782.34 406.92 782.82 403.89 897.87 421.25 897.39 424.29"/><polygon class="cls-28" points="893.88 446.67 778.83 429.3 779.3 426.26 894.35 443.63 893.88 446.67"/><polygon class="cls-28" points="890.37 469.05 775.32 451.68 775.79 448.64 890.84 466.01 890.37 469.05"/><polygon class="cls-28" points="810.86 500.39 768.57 494 768.4 495.08 810.69 501.46 810.86 500.39"/><path class="cls-28" d="M873.31,490.32a7.92,7.92,0,0,0-6.26-.54,7.67,7.67,0,0,0-.82-.53,8,8,0,0,0-9,1,7.62,7.62,0,0,0-2,8.5,7.89,7.89,0,0,0,7.52,4.78,7.45,7.45,0,0,0,2.22-.4,8,8,0,0,0,4.85,1.47,7.83,7.83,0,0,0,7.41-6.47A7.71,7.71,0,0,0,873.31,490.32Zm-9.59,11.9a6.66,6.66,0,0,1-6.84-2.94,6.37,6.37,0,0,1,.54-7.41,6.67,6.67,0,0,1,7.27-1.95,6.36,6.36,0,0,1,1,.45,7.35,7.35,0,0,0-1.39,1,7.49,7.49,0,0,0-.46,10.83Zm5.19-5.31a3.08,3.08,0,1,1-4.95,3.43,6.35,6.35,0,0,1,.53-7.4,6.46,6.46,0,0,1,2.34-1.75A6.54,6.54,0,0,1,868.91,496.91Zm1.89,6.38a6.74,6.74,0,0,1-4.48-.73,7.93,7.93,0,0,0,3.84-5.46,7.73,7.73,0,0,0-2-6.34,6.61,6.61,0,0,1,3.6.23,6.38,6.38,0,0,1-1,12.3Z"/></g></svg>